M48
METRIC,LZ,000.000
;FILE_FORMAT=3:3
;TYPE=PLATED
;Layer: Drill PTH
;EasyEDA v6.4.19.4, 2021-04-14T13:58:42--4:00
;fa96b751c2d54882ab86a56ef34f2425,10
;Gerber Generator version 0.2
;Holesize 1 = 0.310 mm
T01C0.310
;Holesize 2 = 0.798 mm
T02C0.798
;Holesize 3 = 0.800 mm
T03C0.800
;Holesize 4 = 0.900 mm
T04C0.900
;Holesize 5 = 0.914 mm
T05C0.914
;Holesize 6 = 0.915 mm
T06C0.915
;Holesize 7 = 1.000 mm
T07C1.000
;Holesize 8 = 1.016 mm
T08C1.016
;Holesize 9 = 1.200 mm
T09C1.200
;Holesize 10 = 1.400 mm
T10C1.400
;Holesize 11 = 1.600 mm
T11C1.600
%
G05
G90
T01
X268732Y016388
X160528Y-141925
X160625Y-078489
X259334Y-047755
X206248Y-157129
X209855Y-096312
X207343Y-108476
X159258Y-093271
X172324Y-073271
X119075Y-059820
X144907Y-105433
X155410Y-088138
X161646Y-039741
X171722Y-048260
X160670Y-014605
X157988Y-065903
X192659Y-071501
X187579Y-076835
T02
X114300Y-081788
X114300Y-084328
X114300Y-086868
X114300Y-089408
X114300Y-091948
X124460Y-091948
X124460Y-089408
X124460Y-086868
X124460Y-084328
X124460Y-081788
X124460Y-079248
T03
X094491Y-107948G85X094485Y-107948
X094491Y-105408G85X094485Y-105408
X046231Y-098809G85X046225Y-098809
X094491Y-068329G85X094485Y-068329
X046231Y-096269G85X046225Y-096269
X094491Y-070869G85X094485Y-070869
X046231Y-093729G85X046225Y-093729
X094491Y-073409G85X094485Y-073409
X046231Y-091189G85X046225Y-091189
X094491Y-075949G85X094485Y-075949
X046231Y-088649G85X046225Y-088649
X094491Y-078489G85X094485Y-078489
X046231Y-086109G85X046225Y-086109
X094491Y-081029G85X094485Y-081029
X046231Y-083569G85X046225Y-083569
X094491Y-085088G85X094485Y-085088
X046231Y-081029G85X046225Y-081029
X094491Y-087628G85X094485Y-087628
X046231Y-075949G85X046225Y-075949
X094491Y-090168G85X094485Y-090168
X046231Y-073409G85X046225Y-073409
X094491Y-092708G85X094485Y-092708
X046231Y-070869G85X046225Y-070869
X094491Y-095248G85X094485Y-095248
X046231Y-068329G85X046225Y-068329
X094491Y-097788G85X094485Y-097788
X046231Y-065789G85X046225Y-065789
X094491Y-100328G85X094485Y-100328
X046231Y-063249G85X046225Y-063249
X094491Y-102868G85X094485Y-102868
X094491Y-063249G85X094485Y-063249
X094491Y-065789G85X094485Y-065789
T04
X112573Y-029591
X119075Y-029591
T05
X114300Y-079502
T06
X028067Y-178054
X030607Y-178054
X033147Y-178054
X035687Y-178054
X038227Y-178054
X040767Y-178054
X043307Y-178054
T07
X247777Y-076581
X249047Y-071501
X250317Y-076581
X251587Y-071501
X252857Y-076581
X254127Y-071501
X255397Y-076581
X256667Y-071501
X257937Y-076581
X259207Y-071501
X260477Y-076581
X261747Y-071501
X263017Y-076581
X264287Y-071501
X265557Y-076581
X139827Y-072136
X142367Y-072136
X144907Y-072136
X161925Y-109220
X164465Y-109220
X167005Y-109220
T08
X062865Y-032385
X060325Y-032385
X057785Y-032385
X055245Y-032385
X052705Y-032385
X050165Y-032385
X047625Y-032385
X045085Y-032385
X156718Y014605
X159258Y014605
X156718Y012065
X159258Y012065
X156718Y009525
X159258Y009525
X156718Y006985
X159258Y006985
X156718Y004445
X159258Y004445
X156718Y001905
X159258Y001905
X156718Y-000635
X159258Y-000635
X156718Y-003175
X159258Y-003175
X156718Y-005715
X159258Y-005715
X156718Y-008255
X159258Y-008255
X156718Y-010795
X159258Y-010795
X156718Y-013335
X159258Y-013335
X156718Y-015875
X159258Y-015875
X156718Y-018415
X159258Y-018415
X156718Y-020955
X159258Y-020955
X156718Y-023495
X159258Y-023495
X156718Y-026035
X159258Y-026035
X156718Y-028575
X159258Y-028575
X156718Y-031115
X159258Y-031115
X156718Y-033655
X159258Y-033655
X156718Y-036195
X159258Y-036195
X156718Y-038735
X159258Y-038735
X156718Y-041275
X159258Y-041275
X204978Y014605
X207518Y014605
X204978Y012065
X207518Y012065
X204978Y009525
X207518Y009525
X204978Y006985
X207518Y006985
X204978Y004445
X207518Y004445
X204978Y001905
X207518Y001905
X204978Y-000635
X207518Y-000635
X204978Y-003175
X207518Y-003175
X204978Y-005715
X207518Y-005715
X204978Y-008255
X207518Y-008255
X204978Y-010795
X207518Y-010795
X204978Y-013335
X207518Y-013335
X204978Y-015875
X207518Y-015875
X204978Y-018415
X207518Y-018415
X204978Y-020955
X207518Y-020955
X204978Y-023495
X207518Y-023495
X204978Y-026035
X207518Y-026035
X204978Y-028575
X207518Y-028575
X204978Y-031115
X207518Y-031115
X204978Y-033655
X207518Y-033655
X204978Y-036195
X207518Y-036195
X204978Y-038735
X207518Y-038735
X204978Y-041275
X207518Y-041275
T09
X076454Y-162560
X078994Y-162560
X081534Y-162560
X084074Y-162560
X086614Y-162560
X089154Y-162560
X091694Y-162560
X094234Y-162560
X096774Y-162560
X099314Y-162560
X101854Y-162560
X104394Y-162560
X106934Y-162560
X109474Y-162560
X112014Y-162560
X114554Y-162560
T10
X278511Y-107442
X283591Y-107442
X288671Y-107442
X258572Y-159639
X263652Y-159639
X268732Y-159639
T11
X187579Y-125730
X192659Y-125730
M30
