G04 Layer: BottomSolderMaskLayer*
G04 EasyEDA v6.4.19.4, 2021-04-14T13:58:42--4:00*
G04 fa96b751c2d54882ab86a56ef34f2425,10*
G04 Gerber Generator version 0.2*
G04 Scale: 100 percent, Rotated: No, Reflected: No *
G04 Dimensions in millimeters *
G04 leading zeros omitted , absolute positions ,4 integer and 5 decimal *
%FSLAX45Y45*%
%MOMM*%

%ADD34C,2.2032*%
%ADD35C,2.5016*%
%ADD37C,2.3032*%
%ADD38C,1.5037*%
%ADD39C,1.7016*%
%ADD47C,1.8032*%
%ADD49C,1.7272*%
%ADD50C,2.1016*%
%ADD52C,2.0828*%

%LPD*%
D34*
X7645400Y-16281001D02*
G01*
X7645400Y-16231001D01*
X7899400Y-16281001D02*
G01*
X7899400Y-16231001D01*
X8153400Y-16281001D02*
G01*
X8153400Y-16231001D01*
X8407400Y-16281001D02*
G01*
X8407400Y-16231001D01*
X8661400Y-16281001D02*
G01*
X8661400Y-16231001D01*
X8915400Y-16281001D02*
G01*
X8915400Y-16231001D01*
X9169400Y-16281001D02*
G01*
X9169400Y-16231001D01*
X9423400Y-16281001D02*
G01*
X9423400Y-16231001D01*
X9677400Y-16281001D02*
G01*
X9677400Y-16231001D01*
X9931400Y-16281001D02*
G01*
X9931400Y-16231001D01*
X10185400Y-16281001D02*
G01*
X10185400Y-16230998D01*
X10439400Y-16281001D02*
G01*
X10439400Y-16230998D01*
X10693400Y-16281001D02*
G01*
X10693400Y-16230998D01*
X10947400Y-16281001D02*
G01*
X10947400Y-16230998D01*
X11201400Y-16281001D02*
G01*
X11201400Y-16230998D01*
X11455400Y-16281001D02*
G01*
X11455400Y-16230998D01*
D35*
G01*
X18757900Y-12573000D03*
G01*
X19265900Y-12573000D03*
G36*
X24677624Y-7818373D02*
G01*
X24677624Y-7497826D01*
X24877775Y-7497826D01*
X24877775Y-7818373D01*
G37*
D37*
G01*
X24904700Y-7150100D03*
G01*
X25031700Y-7658100D03*
G01*
X25158700Y-7150100D03*
G01*
X25285700Y-7658100D03*
G01*
X25412700Y-7150100D03*
G01*
X25539700Y-7658100D03*
G01*
X25666700Y-7150100D03*
G01*
X25793700Y-7658100D03*
G01*
X25920700Y-7150100D03*
G01*
X26047700Y-7658100D03*
G01*
X26174700Y-7150100D03*
G01*
X26301700Y-7658100D03*
G01*
X26428700Y-7150100D03*
G01*
X26555700Y-7658100D03*
D38*
G01*
X11257279Y-2959100D03*
G01*
X11907520Y-2959100D03*
D39*
G01*
X13982700Y-7213600D03*
G01*
X14236700Y-7213600D03*
G01*
X14490700Y-7213600D03*
G01*
X16192500Y-10922000D03*
G01*
X16446500Y-10922000D03*
G01*
X16700500Y-10922000D03*
G36*
X6205474Y-3376168D02*
G01*
X6205474Y-3101086D01*
X6367525Y-3101086D01*
X6367525Y-3376168D01*
G37*
G36*
X5951474Y-3376168D02*
G01*
X5951474Y-3101086D01*
X6113525Y-3101086D01*
X6113525Y-3376168D01*
G37*
G36*
X5697474Y-3376168D02*
G01*
X5697474Y-3101086D01*
X5859525Y-3101086D01*
X5859525Y-3376168D01*
G37*
G36*
X5443474Y-3376168D02*
G01*
X5443474Y-3101086D01*
X5605525Y-3101086D01*
X5605525Y-3376168D01*
G37*
G36*
X5189474Y-3376168D02*
G01*
X5189474Y-3101086D01*
X5351525Y-3101086D01*
X5351525Y-3376168D01*
G37*
G36*
X4935474Y-3376168D02*
G01*
X4935474Y-3101086D01*
X5097525Y-3101086D01*
X5097525Y-3376168D01*
G37*
G36*
X4681474Y-3376168D02*
G01*
X4681474Y-3101086D01*
X4843525Y-3101086D01*
X4843525Y-3376168D01*
G37*
G36*
X4427474Y-3376168D02*
G01*
X4427474Y-3101086D01*
X4589525Y-3101086D01*
X4589525Y-3376168D01*
G37*
D47*
G01*
X9448800Y-10794796D03*
G01*
X9448800Y-10540796D03*
G36*
X4532629Y-9971024D02*
G01*
X4532629Y-9790684D01*
X4712970Y-9790684D01*
X4712970Y-9971024D01*
G37*
G01*
X9448800Y-6832803D03*
G01*
X4622800Y-9626803D03*
G01*
X9448800Y-7086803D03*
G01*
X4622800Y-9372803D03*
G01*
X9448800Y-7340803D03*
G01*
X4622800Y-9118803D03*
G01*
X9448800Y-7594803D03*
G01*
X4622800Y-8864803D03*
G01*
X9448800Y-7848803D03*
G01*
X4622800Y-8610803D03*
G01*
X9448800Y-8102803D03*
G01*
X4622800Y-8356803D03*
G01*
X9448800Y-8508796D03*
G01*
X4622800Y-8102803D03*
G01*
X9448800Y-8762796D03*
G01*
X4622800Y-7594803D03*
G01*
X9448800Y-9016796D03*
G01*
X4622800Y-7340803D03*
G01*
X9448800Y-9270796D03*
G01*
X4622800Y-7086803D03*
G01*
X9448800Y-9524796D03*
G01*
X4622800Y-6832803D03*
G01*
X9448800Y-9778796D03*
G01*
X4622800Y-6578803D03*
G01*
X9448800Y-10032796D03*
G01*
X4622800Y-6324803D03*
G01*
X9448800Y-10286796D03*
G01*
X9448800Y-6324803D03*
G01*
X9448800Y-6578803D03*
D49*
G01*
X2806700Y-17805400D03*
G01*
X3060700Y-17805400D03*
G01*
X3314700Y-17805400D03*
G01*
X3568700Y-17805400D03*
G01*
X3822700Y-17805400D03*
G01*
X4076700Y-17805400D03*
G01*
X4330700Y-17805400D03*
G01*
X11430000Y-7950200D03*
G01*
X11430000Y-8178800D03*
G01*
X11430000Y-8432800D03*
G01*
X11430000Y-8686800D03*
G01*
X11430000Y-8940800D03*
G01*
X11430000Y-9194800D03*
G01*
X12446000Y-9194800D03*
G01*
X12446000Y-8940800D03*
G01*
X12446000Y-8686800D03*
G01*
X12446000Y-8432800D03*
G01*
X12446000Y-8178800D03*
G01*
X12446000Y-7924800D03*
D50*
G01*
X27851100Y-10744200D03*
G01*
X28359100Y-10744200D03*
G01*
X28867100Y-10744200D03*
G01*
X25857200Y-15963900D03*
G01*
X26365200Y-15963900D03*
G01*
X26873200Y-15963900D03*
G36*
X15567659Y1356360D02*
G01*
X15567659Y1564639D01*
X15775940Y1564639D01*
X15775940Y1356360D01*
G37*
D52*
G01*
X15925800Y1460500D03*
G01*
X15671800Y1206500D03*
G01*
X15925800Y1206500D03*
G01*
X15671800Y952500D03*
G01*
X15925800Y952500D03*
G01*
X15671800Y698500D03*
G01*
X15925800Y698500D03*
G01*
X15671800Y444500D03*
G01*
X15925800Y444500D03*
G01*
X15671800Y190500D03*
G01*
X15925800Y190500D03*
G01*
X15671800Y-63500D03*
G01*
X15925800Y-63500D03*
G01*
X15671800Y-317500D03*
G01*
X15925800Y-317500D03*
G01*
X15671800Y-571500D03*
G01*
X15925800Y-571500D03*
G01*
X15671800Y-825500D03*
G01*
X15925800Y-825500D03*
G01*
X15671800Y-1079500D03*
G01*
X15925800Y-1079500D03*
G01*
X15671800Y-1333500D03*
G01*
X15925800Y-1333500D03*
G01*
X15671800Y-1587500D03*
G01*
X15925800Y-1587500D03*
G01*
X15671800Y-1841500D03*
G01*
X15925800Y-1841500D03*
G01*
X15671800Y-2095500D03*
G01*
X15925800Y-2095500D03*
G01*
X15671800Y-2349500D03*
G01*
X15925800Y-2349500D03*
G01*
X15671800Y-2603500D03*
G01*
X15925800Y-2603500D03*
G01*
X15671800Y-2857500D03*
G01*
X15925800Y-2857500D03*
G01*
X15671800Y-3111500D03*
G01*
X15925800Y-3111500D03*
G01*
X15671800Y-3365500D03*
G01*
X15925800Y-3365500D03*
G01*
X15671800Y-3619500D03*
G01*
X15925800Y-3619500D03*
G01*
X15671800Y-3873500D03*
G01*
X15925800Y-3873500D03*
G01*
X15671800Y-4127500D03*
G01*
X15925800Y-4127500D03*
G36*
X20393659Y1356360D02*
G01*
X20393659Y1564639D01*
X20601940Y1564639D01*
X20601940Y1356360D01*
G37*
G01*
X20751800Y1460500D03*
G01*
X20497800Y1206500D03*
G01*
X20751800Y1206500D03*
G01*
X20497800Y952500D03*
G01*
X20751800Y952500D03*
G01*
X20497800Y698500D03*
G01*
X20751800Y698500D03*
G01*
X20497800Y444500D03*
G01*
X20751800Y444500D03*
G01*
X20497800Y190500D03*
G01*
X20751800Y190500D03*
G01*
X20497800Y-63500D03*
G01*
X20751800Y-63500D03*
G01*
X20497800Y-317500D03*
G01*
X20751800Y-317500D03*
G01*
X20497800Y-571500D03*
G01*
X20751800Y-571500D03*
G01*
X20497800Y-825500D03*
G01*
X20751800Y-825500D03*
G01*
X20497800Y-1079500D03*
G01*
X20751800Y-1079500D03*
G01*
X20497800Y-1333500D03*
G01*
X20751800Y-1333500D03*
G01*
X20497800Y-1587500D03*
G01*
X20751800Y-1587500D03*
G01*
X20497800Y-1841500D03*
G01*
X20751800Y-1841500D03*
G01*
X20497800Y-2095500D03*
G01*
X20751800Y-2095500D03*
G01*
X20497800Y-2349500D03*
G01*
X20751800Y-2349500D03*
G01*
X20497800Y-2603500D03*
G01*
X20751800Y-2603500D03*
G01*
X20497800Y-2857500D03*
G01*
X20751800Y-2857500D03*
G01*
X20497800Y-3111500D03*
G01*
X20751800Y-3111500D03*
G01*
X20497800Y-3365500D03*
G01*
X20751800Y-3365500D03*
G01*
X20497800Y-3619500D03*
G01*
X20751800Y-3619500D03*
G01*
X20497800Y-3873500D03*
G01*
X20751800Y-3873500D03*
G01*
X20497800Y-4127500D03*
G01*
X20751800Y-4127500D03*
M02*
