G04 Layer: BottomLayer*
G04 EasyEDA v6.4.19.4, 2021-04-14T13:58:42--4:00*
G04 fa96b751c2d54882ab86a56ef34f2425,10*
G04 Gerber Generator version 0.2*
G04 Scale: 100 percent, Rotated: No, Reflected: No *
G04 Dimensions in millimeters *
G04 leading zeros omitted , absolute positions ,4 integer and 5 decimal *
%FSLAX45Y45*%
%MOMM*%

%ADD11C,0.2600*%
%ADD12C,0.6100*%
%ADD19C,2.4000*%
%ADD21C,2.1000*%
%ADD22C,1.3005*%
%ADD23C,1.6000*%
%ADD25R,1.6000X1.6000*%
%ADD26C,1.5240*%
%ADD27C,2.0000*%
%ADD28R,1.8796X1.8796*%
%ADD29C,1.8796*%

%LPD*%
D11*
X26873200Y-15963900D02*
G01*
X26873200Y1638807D01*
X16052800Y-14192504D02*
G01*
X16052800Y-10871200D01*
X16127222Y-10797031D01*
X16127222Y-4021328D01*
X16104870Y-3998976D01*
X16104870Y-3949445D01*
X16127222Y-3927094D01*
X16127222Y-10921D01*
X15925800Y190500D01*
X15925800Y-2095500D02*
G01*
X16062452Y-2232152D01*
X16062452Y-7848854D01*
X15671800Y-1587500D02*
G01*
X12552172Y-4707128D01*
X12552172Y-8834628D01*
X12446000Y-8940800D01*
X15671800Y-1841500D02*
G01*
X12599670Y-4913629D01*
X12599670Y-9041129D01*
X12599670Y-9041129D01*
X12446000Y-9194800D01*
X3568700Y-17805400D02*
G01*
X3568700Y-7632954D01*
X4622800Y-6578854D01*
X20497800Y444500D02*
G01*
X20624800Y317500D01*
X20840445Y317500D01*
X25933400Y-4775454D01*
X20751800Y-571500D02*
G01*
X20624800Y-698500D01*
X20624800Y-15712947D01*
X20985479Y-9631171D02*
G01*
X20985479Y-372363D01*
X20803616Y-190500D01*
X20624800Y-190500D01*
X20497800Y-317500D01*
X20734274Y-10847578D02*
G01*
X20874990Y-10706608D01*
X20874990Y-440689D01*
X20751800Y-317500D01*
X15925800Y-4127500D02*
G01*
X15925800Y-9327134D01*
X4622800Y-7594854D02*
G01*
X4762500Y-7455154D01*
X4762500Y-3238500D01*
X4622800Y-8102854D02*
G01*
X5016500Y-7709154D01*
X5016500Y-3238500D01*
X4622800Y-8864854D02*
G01*
X5778500Y-7709154D01*
X5778500Y-3238500D01*
X4507738Y-9372854D02*
G01*
X4507738Y-8823452D01*
X4593336Y-8737854D01*
X4665725Y-8737854D01*
X5270500Y-8133079D01*
X5270500Y-3238500D01*
X3314700Y-17805400D02*
G01*
X3435095Y-17925795D01*
X3598163Y-17925795D01*
X3695700Y-17828260D01*
X3695700Y-10184892D01*
X4507738Y-9372854D01*
X4507738Y-9372854D02*
G01*
X4622800Y-9372854D01*
X20751800Y698500D02*
G01*
X20624800Y571500D01*
X20430743Y571500D01*
X18336259Y-1522984D01*
X18336259Y-8778239D01*
X16192500Y-10922000D01*
X20497800Y698500D02*
G01*
X17232375Y-2566923D01*
X17232375Y-7327137D01*
X11907520Y-2959100D02*
G01*
X11907520Y-5981954D01*
X14490700Y-7213600D02*
G01*
X14490700Y-10543286D01*
X15671800Y952500D02*
G01*
X15798800Y825500D01*
X15798800Y-1893315D01*
X15723361Y-1968500D01*
X15624556Y-1968500D01*
X14490700Y-3102355D01*
X14490700Y-7213600D01*
X4622800Y-9880854D02*
G01*
X4622800Y-9990074D01*
X11430000Y-9194800D02*
G01*
X11430000Y-8940800D01*
X15671800Y-3873500D02*
G01*
X15540990Y-4004310D01*
X15540990Y-8813800D01*
X16164559Y-3974084D02*
G01*
X16171925Y-3966718D01*
X16171925Y-3966718D02*
G01*
X16171925Y452373D01*
X15925800Y698500D01*
X16171925Y-3966718D02*
G01*
X16312895Y-3966718D01*
X17172177Y-4826000D01*
X4622800Y-9990074D02*
G01*
X4330700Y-10282174D01*
X4330700Y-17805400D01*
X15798800Y-6590284D02*
G01*
X15798800Y-2042668D01*
X15872968Y-1968500D01*
X15978124Y-1968500D01*
X16067024Y-1879854D01*
X16067024Y-1460500D01*
X19265900Y-12573000D02*
G01*
X19265900Y-7150100D01*
X18757900Y-12573000D02*
G01*
X18757900Y-7683500D01*
D19*
G01*
X18757900Y-12573000D03*
G01*
X19265900Y-12573000D03*
G36*
X24687700Y-7508100D02*
G01*
X24867699Y-7508100D01*
X24867699Y-7808099D01*
X24687700Y-7808099D01*
G37*
D21*
G01*
X24904700Y-7150100D03*
G01*
X25031700Y-7658100D03*
G01*
X25158700Y-7150100D03*
G01*
X25285700Y-7658100D03*
G01*
X25412700Y-7150100D03*
G01*
X25539700Y-7658100D03*
G01*
X25666700Y-7150100D03*
G01*
X25793700Y-7658100D03*
G01*
X25920700Y-7150100D03*
G01*
X26047700Y-7658100D03*
G01*
X26174700Y-7150100D03*
G01*
X26301700Y-7658100D03*
G01*
X26428700Y-7150100D03*
G01*
X26555700Y-7658100D03*
D22*
G01*
X11257279Y-2959100D03*
G01*
X11907520Y-2959100D03*
D23*
G01*
X13982700Y-7213600D03*
G01*
X14236700Y-7213600D03*
G01*
X14490700Y-7213600D03*
G01*
X16192500Y-10922000D03*
G01*
X16446500Y-10922000D03*
G01*
X16700500Y-10922000D03*
G36*
X6357315Y-3111119D02*
G01*
X6357315Y-3365880D01*
X6215710Y-3365880D01*
X6215710Y-3111119D01*
G37*
G36*
X6103315Y-3111119D02*
G01*
X6103315Y-3365880D01*
X5961710Y-3365880D01*
X5961710Y-3111119D01*
G37*
G36*
X5849315Y-3111119D02*
G01*
X5849315Y-3365880D01*
X5707710Y-3365880D01*
X5707710Y-3111119D01*
G37*
G36*
X5595315Y-3111119D02*
G01*
X5595315Y-3365880D01*
X5453710Y-3365880D01*
X5453710Y-3111119D01*
G37*
G36*
X5341315Y-3111119D02*
G01*
X5341315Y-3365880D01*
X5199710Y-3365880D01*
X5199710Y-3111119D01*
G37*
G36*
X5087315Y-3111119D02*
G01*
X5087315Y-3365880D01*
X4945710Y-3365880D01*
X4945710Y-3111119D01*
G37*
G36*
X4833315Y-3111119D02*
G01*
X4833315Y-3365880D01*
X4691710Y-3365880D01*
X4691710Y-3111119D01*
G37*
G36*
X4579315Y-3111119D02*
G01*
X4579315Y-3365880D01*
X4437710Y-3365880D01*
X4437710Y-3111119D01*
G37*
G01*
X9448800Y-10794796D03*
G01*
X9448800Y-10540796D03*
D25*
G01*
X4622800Y-9880803D03*
D23*
G01*
X9448800Y-6832803D03*
G01*
X4622800Y-9626803D03*
G01*
X9448800Y-7086803D03*
G01*
X4622800Y-9372803D03*
G01*
X9448800Y-7340803D03*
G01*
X4622800Y-9118803D03*
G01*
X9448800Y-7594803D03*
G01*
X4622800Y-8864803D03*
G01*
X9448800Y-7848803D03*
G01*
X4622800Y-8610803D03*
G01*
X9448800Y-8102803D03*
G01*
X4622800Y-8356803D03*
G01*
X9448800Y-8508796D03*
G01*
X4622800Y-8102803D03*
G01*
X9448800Y-8762796D03*
G01*
X4622800Y-7594803D03*
G01*
X9448800Y-9016796D03*
G01*
X4622800Y-7340803D03*
G01*
X9448800Y-9270796D03*
G01*
X4622800Y-7086803D03*
G01*
X9448800Y-9524796D03*
G01*
X4622800Y-6832803D03*
G01*
X9448800Y-9778796D03*
G01*
X4622800Y-6578803D03*
G01*
X9448800Y-10032796D03*
G01*
X4622800Y-6324803D03*
G01*
X9448800Y-10286796D03*
G01*
X9448800Y-6324803D03*
G01*
X9448800Y-6578803D03*
D26*
G01*
X2806700Y-17805400D03*
G01*
X3060700Y-17805400D03*
G01*
X3314700Y-17805400D03*
G01*
X3568700Y-17805400D03*
G01*
X3822700Y-17805400D03*
G01*
X4076700Y-17805400D03*
G01*
X4330700Y-17805400D03*
G01*
X11430000Y-7950200D03*
G01*
X11430000Y-8178800D03*
G01*
X11430000Y-8432800D03*
G01*
X11430000Y-8686800D03*
G01*
X11430000Y-8940800D03*
G01*
X11430000Y-9194800D03*
G01*
X12446000Y-9194800D03*
G01*
X12446000Y-8940800D03*
G01*
X12446000Y-8686800D03*
G01*
X12446000Y-8432800D03*
G01*
X12446000Y-8178800D03*
G01*
X12446000Y-7924800D03*
D27*
G01*
X27851100Y-10744200D03*
G01*
X28359100Y-10744200D03*
G01*
X28867100Y-10744200D03*
G01*
X25857200Y-15963900D03*
G01*
X26365200Y-15963900D03*
G01*
X26873200Y-15963900D03*
D28*
G01*
X15671800Y1460500D03*
D29*
G01*
X15925800Y1460500D03*
G01*
X15671800Y1206500D03*
G01*
X15925800Y1206500D03*
G01*
X15671800Y952500D03*
G01*
X15925800Y952500D03*
G01*
X15671800Y698500D03*
G01*
X15925800Y698500D03*
G01*
X15671800Y444500D03*
G01*
X15925800Y444500D03*
G01*
X15671800Y190500D03*
G01*
X15925800Y190500D03*
G01*
X15671800Y-63500D03*
G01*
X15925800Y-63500D03*
G01*
X15671800Y-317500D03*
G01*
X15925800Y-317500D03*
G01*
X15671800Y-571500D03*
G01*
X15925800Y-571500D03*
G01*
X15671800Y-825500D03*
G01*
X15925800Y-825500D03*
G01*
X15671800Y-1079500D03*
G01*
X15925800Y-1079500D03*
G01*
X15671800Y-1333500D03*
G01*
X15925800Y-1333500D03*
G01*
X15671800Y-1587500D03*
G01*
X15925800Y-1587500D03*
G01*
X15671800Y-1841500D03*
G01*
X15925800Y-1841500D03*
G01*
X15671800Y-2095500D03*
G01*
X15925800Y-2095500D03*
G01*
X15671800Y-2349500D03*
G01*
X15925800Y-2349500D03*
G01*
X15671800Y-2603500D03*
G01*
X15925800Y-2603500D03*
G01*
X15671800Y-2857500D03*
G01*
X15925800Y-2857500D03*
G01*
X15671800Y-3111500D03*
G01*
X15925800Y-3111500D03*
G01*
X15671800Y-3365500D03*
G01*
X15925800Y-3365500D03*
G01*
X15671800Y-3619500D03*
G01*
X15925800Y-3619500D03*
G01*
X15671800Y-3873500D03*
G01*
X15925800Y-3873500D03*
G01*
X15671800Y-4127500D03*
G01*
X15925800Y-4127500D03*
D28*
G01*
X20497800Y1460500D03*
D29*
G01*
X20751800Y1460500D03*
G01*
X20497800Y1206500D03*
G01*
X20751800Y1206500D03*
G01*
X20497800Y952500D03*
G01*
X20751800Y952500D03*
G01*
X20497800Y698500D03*
G01*
X20751800Y698500D03*
G01*
X20497800Y444500D03*
G01*
X20751800Y444500D03*
G01*
X20497800Y190500D03*
G01*
X20751800Y190500D03*
G01*
X20497800Y-63500D03*
G01*
X20751800Y-63500D03*
G01*
X20497800Y-317500D03*
G01*
X20751800Y-317500D03*
G01*
X20497800Y-571500D03*
G01*
X20751800Y-571500D03*
G01*
X20497800Y-825500D03*
G01*
X20751800Y-825500D03*
G01*
X20497800Y-1079500D03*
G01*
X20751800Y-1079500D03*
G01*
X20497800Y-1333500D03*
G01*
X20751800Y-1333500D03*
G01*
X20497800Y-1587500D03*
G01*
X20751800Y-1587500D03*
G01*
X20497800Y-1841500D03*
G01*
X20751800Y-1841500D03*
G01*
X20497800Y-2095500D03*
G01*
X20751800Y-2095500D03*
G01*
X20497800Y-2349500D03*
G01*
X20751800Y-2349500D03*
G01*
X20497800Y-2603500D03*
G01*
X20751800Y-2603500D03*
G01*
X20497800Y-2857500D03*
G01*
X20751800Y-2857500D03*
G01*
X20497800Y-3111500D03*
G01*
X20751800Y-3111500D03*
G01*
X20497800Y-3365500D03*
G01*
X20751800Y-3365500D03*
G01*
X20497800Y-3619500D03*
G01*
X20751800Y-3619500D03*
G01*
X20497800Y-3873500D03*
G01*
X20751800Y-3873500D03*
G01*
X20497800Y-4127500D03*
G01*
X20751800Y-4127500D03*
D12*
G01*
X26873200Y1638807D03*
G01*
X16052800Y-14192504D03*
G01*
X16062452Y-7848854D03*
G01*
X25933400Y-4775454D03*
G01*
X20624800Y-15712947D03*
G01*
X20985479Y-9631171D03*
G01*
X20734274Y-10847578D03*
G01*
X15925800Y-9327134D03*
G01*
X17232375Y-7327137D03*
G01*
X11907520Y-5981954D03*
G01*
X14490700Y-10543286D03*
G01*
X15540990Y-8813800D03*
G01*
X16164559Y-3974084D03*
G01*
X17172177Y-4826000D03*
G01*
X16067024Y-1460500D03*
G01*
X15798800Y-6590284D03*
G01*
X19265900Y-7150100D03*
G01*
X18757900Y-7683500D03*
D27*
X7645400Y-16281001D02*
G01*
X7645400Y-16231001D01*
X7899400Y-16281001D02*
G01*
X7899400Y-16231001D01*
X8153400Y-16281001D02*
G01*
X8153400Y-16231001D01*
X8407400Y-16281001D02*
G01*
X8407400Y-16231001D01*
X8661400Y-16281001D02*
G01*
X8661400Y-16231001D01*
X8915400Y-16281001D02*
G01*
X8915400Y-16231001D01*
X9169400Y-16281001D02*
G01*
X9169400Y-16231001D01*
X9423400Y-16281001D02*
G01*
X9423400Y-16231001D01*
X9677400Y-16281001D02*
G01*
X9677400Y-16231001D01*
X9931400Y-16281001D02*
G01*
X9931400Y-16231001D01*
X10185400Y-16281001D02*
G01*
X10185400Y-16230998D01*
X10439400Y-16281001D02*
G01*
X10439400Y-16230998D01*
X10693400Y-16281001D02*
G01*
X10693400Y-16230998D01*
X10947400Y-16281001D02*
G01*
X10947400Y-16230998D01*
X11201400Y-16281001D02*
G01*
X11201400Y-16230998D01*
X11455400Y-16281001D02*
G01*
X11455400Y-16230998D01*
M02*
