G04 Layer: TopPasteMaskLayer*
G04 EasyEDA v6.4.19.4, 2021-04-14T13:58:42--4:00*
G04 fa96b751c2d54882ab86a56ef34f2425,10*
G04 Gerber Generator version 0.2*
G04 Scale: 100 percent, Rotated: No, Reflected: No *
G04 Dimensions in millimeters *
G04 leading zeros omitted , absolute positions ,4 integer and 5 decimal *
%FSLAX45Y45*%
%MOMM*%

%ADD13R,1.0000X1.4000*%
%ADD14R,0.8000X0.8000*%
%ADD17R,0.9000X2.0000*%

%LPD*%
D13*
G01*
X21052302Y-10845789D03*
G01*
X20832287Y-10845789D03*
D14*
G01*
X22983190Y-9931400D03*
G01*
X22813009Y-9931400D03*
G36*
X19892276Y-16373284D02*
G01*
X20072286Y-16373284D01*
X20072286Y-16483291D01*
X19892276Y-16483291D01*
G37*
G36*
X19892276Y-16003282D02*
G01*
X20072286Y-16003282D01*
X20072286Y-16113290D01*
X19892276Y-16113290D01*
G37*
G36*
X19272288Y-16373284D02*
G01*
X19452297Y-16373284D01*
X19452297Y-16483291D01*
X19272288Y-16483291D01*
G37*
G36*
X19272288Y-16003282D02*
G01*
X19452297Y-16003282D01*
X19452297Y-16113290D01*
X19272288Y-16113290D01*
G37*
G36*
X25427909Y-3107098D02*
G01*
X25627909Y-3107098D01*
X25627909Y-3197100D01*
X25427909Y-3197100D01*
G37*
G36*
X25427909Y-3234098D02*
G01*
X25627909Y-3234098D01*
X25627909Y-3324100D01*
X25427909Y-3324100D01*
G37*
G36*
X25427909Y-3361098D02*
G01*
X25627909Y-3361098D01*
X25627909Y-3451100D01*
X25427909Y-3451100D01*
G37*
G36*
X25427909Y-3488098D02*
G01*
X25627909Y-3488098D01*
X25627909Y-3578100D01*
X25427909Y-3578100D01*
G37*
G36*
X25427909Y-3615098D02*
G01*
X25627909Y-3615098D01*
X25627909Y-3705100D01*
X25427909Y-3705100D01*
G37*
G36*
X25427909Y-3742098D02*
G01*
X25627909Y-3742098D01*
X25627909Y-3832100D01*
X25427909Y-3832100D01*
G37*
G36*
X25427909Y-3869098D02*
G01*
X25627909Y-3869098D01*
X25627909Y-3959100D01*
X25427909Y-3959100D01*
G37*
G36*
X25427909Y-3996098D02*
G01*
X25627909Y-3996098D01*
X25627909Y-4086100D01*
X25427909Y-4086100D01*
G37*
G36*
X25427909Y-4123098D02*
G01*
X25627909Y-4123098D01*
X25627909Y-4213100D01*
X25427909Y-4213100D01*
G37*
G36*
X25427909Y-4250098D02*
G01*
X25627909Y-4250098D01*
X25627909Y-4340100D01*
X25427909Y-4340100D01*
G37*
G36*
X25427909Y-4377098D02*
G01*
X25627909Y-4377098D01*
X25627909Y-4467100D01*
X25427909Y-4467100D01*
G37*
G36*
X25427909Y-4504098D02*
G01*
X25627909Y-4504098D01*
X25627909Y-4594100D01*
X25427909Y-4594100D01*
G37*
G36*
X25427909Y-4631098D02*
G01*
X25627909Y-4631098D01*
X25627909Y-4721100D01*
X25427909Y-4721100D01*
G37*
G36*
X25427909Y-4758098D02*
G01*
X25627909Y-4758098D01*
X25627909Y-4848100D01*
X25427909Y-4848100D01*
G37*
D17*
G01*
X25806400Y-4925120D03*
G01*
X25933400Y-4925120D03*
G01*
X26060400Y-4925120D03*
G01*
X26187400Y-4925120D03*
G01*
X26314400Y-4925120D03*
G36*
X26396398Y-4825090D02*
G01*
X26396398Y-5025090D01*
X26486401Y-5025090D01*
X26486401Y-4825090D01*
G37*
G36*
X26523398Y-4825090D02*
G01*
X26523398Y-5025090D01*
X26613401Y-5025090D01*
X26613401Y-4825090D01*
G37*
G36*
X26650398Y-4825090D02*
G01*
X26650398Y-5025090D01*
X26740401Y-5025090D01*
X26740401Y-4825090D01*
G37*
G36*
X26777398Y-4825090D02*
G01*
X26777398Y-5025090D01*
X26867401Y-5025090D01*
X26867401Y-4825090D01*
G37*
G36*
X26904398Y-4825090D02*
G01*
X26904398Y-5025090D01*
X26994401Y-5025090D01*
X26994401Y-4825090D01*
G37*
G36*
X27127890Y-4848100D02*
G01*
X27327890Y-4848100D01*
X27327890Y-4758098D01*
X27127890Y-4758098D01*
G37*
G36*
X27127890Y-4721100D02*
G01*
X27327890Y-4721100D01*
X27327890Y-4631098D01*
X27127890Y-4631098D01*
G37*
G36*
X27127890Y-4594100D02*
G01*
X27327890Y-4594100D01*
X27327890Y-4504098D01*
X27127890Y-4504098D01*
G37*
G36*
X27127890Y-4467100D02*
G01*
X27327890Y-4467100D01*
X27327890Y-4377098D01*
X27127890Y-4377098D01*
G37*
G36*
X27127890Y-4340100D02*
G01*
X27327890Y-4340100D01*
X27327890Y-4250098D01*
X27127890Y-4250098D01*
G37*
G36*
X27127890Y-4213100D02*
G01*
X27327890Y-4213100D01*
X27327890Y-4123098D01*
X27127890Y-4123098D01*
G37*
G36*
X27127890Y-4086100D02*
G01*
X27327890Y-4086100D01*
X27327890Y-3996098D01*
X27127890Y-3996098D01*
G37*
G36*
X27127890Y-3959100D02*
G01*
X27327890Y-3959100D01*
X27327890Y-3869098D01*
X27127890Y-3869098D01*
G37*
G36*
X27127890Y-3832100D02*
G01*
X27327890Y-3832100D01*
X27327890Y-3742098D01*
X27127890Y-3742098D01*
G37*
G36*
X27127890Y-3705100D02*
G01*
X27327890Y-3705100D01*
X27327890Y-3615098D01*
X27127890Y-3615098D01*
G37*
G36*
X27127890Y-3578100D02*
G01*
X27327890Y-3578100D01*
X27327890Y-3488098D01*
X27127890Y-3488098D01*
G37*
G36*
X27127890Y-3451100D02*
G01*
X27327890Y-3451100D01*
X27327890Y-3361098D01*
X27127890Y-3361098D01*
G37*
G36*
X27127890Y-3324100D02*
G01*
X27327890Y-3324100D01*
X27327890Y-3234098D01*
X27127890Y-3234098D01*
G37*
G36*
X27127890Y-3197100D02*
G01*
X27327890Y-3197100D01*
X27327890Y-3107098D01*
X27127890Y-3107098D01*
G37*
G36*
X26026198Y-3656401D02*
G01*
X26526200Y-3656401D01*
X26526200Y-4156400D01*
X26026198Y-4156400D01*
G37*
M02*
